<svg id="Layer_1" data-name="Layer 1" xmlns="http://www.w3.org/2000/svg" xmlns:xlink="http://www.w3.org/1999/xlink" viewBox="0 0 941.85 1005"><defs><style>.cls-1,.cls-2,.cls-3,.cls-4,.cls-5{stroke:#000;stroke-miterlimit:10;stroke-width:5px;}.cls-1{fill:url(#linear-gradient);}.cls-2{fill:url(#linear-gradient-2);}.cls-3{fill:url(#linear-gradient-3);}.cls-4{fill:url(#linear-gradient-4);}.cls-5{fill:url(#linear-gradient-5);}</style><linearGradient id="linear-gradient" x1="616.29" y1="177.5" x2="616.29" y2="930.55" gradientUnits="userSpaceOnUse"><stop offset="0" stop-color="red"/><stop offset="1" stop-color="#400000"/></linearGradient><linearGradient id="linear-gradient-2" x1="47.12" y1="766.13" x2="976.89" y2="766.13" gradientUnits="userSpaceOnUse"><stop offset="0" stop-color="#ffff81"/><stop offset="1" stop-color="#ff4000"/></linearGradient><linearGradient id="linear-gradient-3" x1="367.79" y1="299.51" x2="933.37" y2="299.51" gradientUnits="userSpaceOnUse"><stop offset="0" stop-color="#ff0"/><stop offset="1" stop-color="red"/></linearGradient><linearGradient id="linear-gradient-4" x1="713.62" y1="73.45" x2="782.45" y2="73.45" xlink:href="#linear-gradient-3"/><linearGradient id="linear-gradient-5" x1="788.06" y1="119.96" x2="839.02" y2="119.96" xlink:href="#linear-gradient-3"/></defs><path class="cls-1" d="M863.76,311.88s-226.25-53-240.4,53C619.83,474.5,856.69,520.46,856.69,630.06,853.16,722,588,909.34,404.18,930.55,577.41,828,637.51,771.47,630.44,690.16c0-113.13-226.26-183.84-261.61-350C407.71,121,782.45,135.12,863.76,311.88Z" transform="translate(-37.55 -9.29)"/><path class="cls-2" d="M768.31,520.46S842.55,690.16,538.52,821c-240.4,95.45-491.4,91.92-491.4,91.92S414.78,1125,778.92,775c16.09,39.18-205,180.3-325.25,219.19C634,1043.68,733,955.3,846.09,806.82c28.28,0-77.78,137.88-183.84,201.51C803.66,1033.08,892,920,927.4,831.57c7.07,35.35-24.75,109.59-84.85,176.76,70.71-17.68,134.34-109.59,134.34-198C976.89,605.31,768.31,520.46,768.31,520.46Z" transform="translate(-37.55 -9.29)"/><path class="cls-3" d="M923.86,478C980.43,251.78,768.31,181.08,715.28,68c-15.26,6-24.75,56.56-14.14,99,16.65-1.07,82.76,35.48,105.25,73.56,0,.07,0,.16-.07.11C496.09,4.31,177.92,322.49,506.7,531.07c-45.29-83.62-49.49-198,74.24-226.26C683.46,283.6,870.83,301.28,923.86,478Z" transform="translate(-37.55 -9.29)"/><path class="cls-4" d="M782.45,135.12,743.56,85.63,716.24,32.7a13.09,13.09,0,0,1,2.86-18.49h0c7.11-5.08,17.1-2.26,20.51,9.32l14.56,58.56Z" transform="translate(-37.55 -9.29)"/><path class="cls-5" d="M839,170.47l-38.89-42.42-9.45-37.7a13.06,13.06,0,0,1,2.86-18.48h0c7.11-5.08,17.09-2.27,20.5,9.31l7.3,43.33Z" transform="translate(-37.55 -9.29)"/></svg>